M48
T01C0.0200
T02C0.0300
T03C0.0600
T04C0.0400
T05C0.1120
%
T01
X-006000Y+007000
X-004500Y+007250
T02
X-009000Y+013500
X-008000Y+013500
X-007000Y+013500
X-006000Y+013500
X-005000Y+013500
X-004000Y+013500
X-003000Y+013500
X-002000Y+013500
X-001000Y+013500
X+000000Y+013500
X+001000Y+013500
X+002000Y+013500
X+003000Y+013500
X+004000Y+013500
X+005000Y+013500
X+006000Y+013500
X+007000Y+013500
X+008000Y+013500
X+009000Y+013500
X+010000Y+013500
X+010000Y+019500
X+009000Y+019500
X+008000Y+019500
X+007000Y+019500
X+006000Y+019500
X+005000Y+019500
X+004000Y+019500
X+003000Y+019500
X+002000Y+019500
X+001000Y+019500
X+000000Y+019500
X-001000Y+019500
X-002000Y+019500
X-003000Y+019500
X-004000Y+019500
X-005000Y+019500
X-006000Y+019500
X-007000Y+019500
X-008000Y+019500
X-009000Y+019500
X+009842Y+021622
X+009842Y+023622
X+008681Y+009263
X+008681Y+010263
X+005574Y+008255
X+005574Y+012255
X+003696Y+007992
X+003696Y+011992
X+001933Y+007988
X+001933Y+011988
X+000129Y+007984
X+000129Y+011984
X-001826Y+008098
X-001826Y+012098
X-003531Y+008133
X-003531Y+012133
X-005354Y+008133
X-005354Y+012133
X-007122Y+008125
X-007122Y+012125
X-009023Y+008145
X-009023Y+012145
X+007874Y+023606
X+007874Y+024606
X+007874Y+020653
X+007874Y+021653
T03
X+002921Y+023622
X+002921Y+022622
X+004921Y+023622
X+004921Y+022622
T04
X+008850Y+005866
X+009850Y+005866
X+006629Y+005850
X+007629Y+005850
X+004129Y+005850
X+005129Y+005850
X+001629Y+005850
X+002629Y+005850
X-000870Y+005850
X+000129Y+005850
X-003212Y+005937
X-002212Y+005937
X-005657Y+005992
X-004657Y+005992
X-008074Y+005885
X-007074Y+005885
X-005106Y+023637
X-005106Y+022637
X-004106Y+023637
X-004106Y+022637
X-003106Y+023637
X-003106Y+022637
T05
X-008701Y+023137
X+000488Y+023137
X-010397Y+004964
X-010838Y+025681
X+011480Y+025685
X+011594Y+004799
M30
