M48
T01C0.0300
T02C0.0400
%
T01
X-007000Y-002500
X-006000Y-002500
X-005000Y-002500
X-004000Y-002500
X-003000Y-002500
X-002000Y-002500
X-001000Y-002500
X+000000Y-002500
X+001000Y-002500
X+002000Y-002500
X+003000Y-002500
X+004000Y-002500
X+005000Y-002500
X+006000Y-002500
X+007000Y-002500
X+008000Y-002500
X+009000Y-002500
X+010000Y-002500
X+011000Y-002500
X+012000Y-002500
X+012000Y+003500
X+011000Y+003500
X+010000Y+003500
X+009000Y+003500
X+008000Y+003500
X+007000Y+003500
X+006000Y+003500
X+005000Y+003500
X+004000Y+003500
X+003000Y+003500
X+002000Y+003500
X+001000Y+003500
X+000000Y+003500
X-001000Y+003500
X-002000Y+003500
X-003000Y+003500
X-004000Y+003500
X-005000Y+003500
X-006000Y+003500
X-007000Y+003500
X+009500Y-005000
X+011500Y-005000
X+002000Y-006500
X+001000Y-006500
X+005000Y-008500
X+001000Y-008500
X+010000Y-008500
X+010000Y-007500
X+011500Y-008500
X+011500Y-007500
X+012000Y+010000
X+012000Y+014000
X+009000Y+010000
X+009000Y+014000
X+005500Y+010000
X+005500Y+014000
X+002000Y+010000
X+002000Y+014000
X-001500Y+010000
X-001500Y+014000
X-004500Y+010000
X-004500Y+014000
X-007500Y+010000
X-007500Y+014000
X-010500Y+010000
X-010500Y+014000
T02
X+012000Y+006500
X+012000Y+007500
X+009000Y+006500
X+009000Y+007500
X+005500Y+006500
X+005500Y+007500
X+002000Y+006500
X+002000Y+007500
X-001500Y+006500
X-001500Y+007500
X-004500Y+006500
X-004500Y+007500
X-007500Y+006500
X-007500Y+007500
X-010500Y+006500
X-010500Y+007500
M30
